<svg width="76" height="100" viewBox="0 0 76 100" fill="none" xmlns="http://www.w3.org/2000/svg">
<path d="M17.6455 47.1719L23.5769 9.16324C23.7814 7.86788 25.5199 7.56108 26.1335 8.72009L32.5081 20.6511L17.6455 47.1719ZM59.813 56.4099L54.1543 21.401C53.9838 20.3102 52.6203 19.867 51.8363 20.6511L16.1797 56.4099L35.9169 67.4887C37.1441 68.1704 38.6781 68.1704 39.9053 67.4887L59.813 56.4099ZM43.7914 25.8666L39.2235 17.174C38.7122 16.1855 37.3146 16.1855 36.8032 17.174L16.7251 52.967L43.7914 25.8666Z" fill="#89BCD9"/>
<path d="M5.372 80.986H13.094V82.66H7.118V86.818H12.356V88.474H7.118V94H5.372V80.986ZM15.2412 86.548H16.9152V94H15.2412V86.548ZM15.1152 83.848C15.1152 83.584 15.2172 83.362 15.4212 83.182C15.6372 83.002 15.8712 82.912 16.1232 82.912C16.3752 82.912 16.5972 83.002 16.7892 83.182C16.9932 83.362 17.0952 83.584 17.0952 83.848C17.0952 84.124 16.9932 84.352 16.7892 84.532C16.5972 84.7 16.3752 84.784 16.1232 84.784C15.8712 84.784 15.6372 84.694 15.4212 84.514C15.2172 84.334 15.1152 84.112 15.1152 83.848ZM21.3055 86.548L21.4675 88.708L21.3775 88.42C21.5695 87.964 21.8455 87.58 22.2055 87.268C22.5775 86.944 22.9615 86.698 23.3575 86.53C23.7655 86.35 24.1195 86.26 24.4195 86.26L24.3295 87.916C23.7655 87.88 23.2675 87.988 22.8355 88.24C22.4155 88.492 22.0795 88.828 21.8275 89.248C21.5875 89.668 21.4675 90.118 21.4675 90.598V94H19.8115V86.548H21.3055ZM29.7187 94.18C28.8667 94.18 28.1347 94.012 27.5227 93.676C26.9107 93.328 26.4367 92.86 26.1007 92.272C25.7767 91.672 25.6147 90.988 25.6147 90.22C25.6147 89.488 25.8007 88.822 26.1727 88.222C26.5447 87.622 27.0427 87.142 27.6667 86.782C28.2907 86.422 28.9867 86.242 29.7547 86.242C30.7387 86.242 31.5547 86.53 32.2027 87.106C32.8507 87.682 33.2887 88.474 33.5167 89.482L27.3787 91.642L26.9827 90.652L32.0227 88.816L31.6627 89.05C31.5187 88.654 31.2787 88.312 30.9427 88.024C30.6067 87.724 30.1687 87.574 29.6287 87.574C29.1727 87.574 28.7647 87.688 28.4047 87.916C28.0447 88.132 27.7627 88.432 27.5587 88.816C27.3547 89.2 27.2527 89.638 27.2527 90.13C27.2527 90.646 27.3607 91.102 27.5767 91.498C27.7927 91.882 28.0867 92.188 28.4587 92.416C28.8427 92.632 29.2747 92.74 29.7547 92.74C30.0787 92.74 30.3907 92.68 30.6907 92.56C31.0027 92.44 31.2907 92.284 31.5547 92.092L32.3287 93.334C31.9567 93.586 31.5367 93.79 31.0687 93.946C30.6127 94.102 30.1627 94.18 29.7187 94.18ZM40.1503 94.18C39.4663 94.18 38.8603 94.03 38.3323 93.73C37.8163 93.43 37.4023 93.052 37.0903 92.596L37.2883 92.074V94H35.6143V80.068H37.2703V88.258L37.2163 87.628C37.5163 87.22 37.9423 86.89 38.4943 86.638C39.0583 86.374 39.6823 86.242 40.3663 86.242C41.0383 86.242 41.6503 86.404 42.2023 86.728C42.7543 87.052 43.1923 87.508 43.5163 88.096C43.8523 88.672 44.0203 89.362 44.0203 90.166C44.0203 91.006 43.8403 91.726 43.4803 92.326C43.1323 92.926 42.6643 93.388 42.0763 93.712C41.4883 94.024 40.8463 94.18 40.1503 94.18ZM39.8083 92.758C40.2883 92.758 40.7203 92.644 41.1043 92.416C41.4883 92.188 41.7883 91.882 42.0043 91.498C42.2203 91.102 42.3283 90.652 42.3283 90.148C42.3283 89.668 42.2143 89.236 41.9863 88.852C41.7703 88.456 41.4703 88.144 41.0863 87.916C40.7143 87.688 40.2883 87.574 39.8083 87.574C39.4003 87.574 39.0223 87.652 38.6743 87.808C38.3263 87.964 38.0323 88.18 37.7923 88.456C37.5523 88.72 37.3843 89.032 37.2883 89.392V90.886C37.3843 91.246 37.5463 91.57 37.7743 91.858C38.0023 92.134 38.2903 92.356 38.6383 92.524C38.9863 92.68 39.3763 92.758 39.8083 92.758ZM49.3802 94.18C48.6842 94.18 48.0482 94.03 47.4722 93.73C46.9082 93.43 46.4582 92.992 46.1222 92.416C45.7982 91.828 45.6362 91.114 45.6362 90.274C45.6362 89.446 45.8102 88.732 46.1582 88.132C46.5062 87.52 46.9682 87.052 47.5442 86.728C48.1322 86.404 48.7742 86.242 49.4702 86.242C50.1662 86.242 50.7542 86.404 51.2342 86.728C51.7142 87.04 52.0802 87.412 52.3322 87.844L52.2242 88.132L52.3862 86.548H53.9342V94H52.2602V92.056L52.4402 92.488C52.3922 92.608 52.2842 92.764 52.1162 92.956C51.9602 93.136 51.7442 93.322 51.4682 93.514C51.2042 93.706 50.8982 93.868 50.5502 94C50.2022 94.12 49.8122 94.18 49.3802 94.18ZM49.8302 92.794C50.2502 92.794 50.6282 92.716 50.9642 92.56C51.3002 92.404 51.5762 92.188 51.7922 91.912C52.0202 91.624 52.1762 91.282 52.2602 90.886V89.428C52.1642 89.068 51.9962 88.756 51.7562 88.492C51.5162 88.216 51.2282 88.006 50.8922 87.862C50.5562 87.706 50.1842 87.628 49.7762 87.628C49.3322 87.628 48.9242 87.736 48.5522 87.952C48.1802 88.168 47.8802 88.468 47.6522 88.852C47.4362 89.236 47.3282 89.686 47.3282 90.202C47.3282 90.682 47.4422 91.12 47.6702 91.516C47.8982 91.912 48.2042 92.224 48.5882 92.452C48.9722 92.68 49.3862 92.794 49.8302 92.794ZM58.919 94.144C58.391 94.144 57.875 94.054 57.371 93.874C56.879 93.682 56.471 93.4 56.147 93.028L56.849 92.056C57.161 92.356 57.479 92.584 57.803 92.74C58.139 92.884 58.469 92.956 58.793 92.956C59.033 92.956 59.255 92.926 59.459 92.866C59.663 92.806 59.825 92.71 59.945 92.578C60.077 92.434 60.143 92.242 60.143 92.002C60.143 91.738 60.053 91.528 59.873 91.372C59.705 91.216 59.483 91.09 59.207 90.994C58.943 90.898 58.661 90.808 58.361 90.724C57.749 90.52 57.281 90.238 56.957 89.878C56.633 89.518 56.471 89.08 56.471 88.564C56.471 88.168 56.567 87.802 56.759 87.466C56.963 87.118 57.257 86.836 57.641 86.62C58.037 86.404 58.523 86.296 59.099 86.296C59.615 86.296 60.077 86.362 60.485 86.494C60.893 86.614 61.277 86.818 61.637 87.106L60.971 88.15C60.755 87.922 60.497 87.754 60.197 87.646C59.897 87.538 59.627 87.478 59.387 87.466C59.183 87.454 58.985 87.484 58.793 87.556C58.613 87.628 58.463 87.73 58.343 87.862C58.223 87.994 58.163 88.15 58.163 88.33C58.163 88.582 58.247 88.786 58.415 88.942C58.583 89.098 58.799 89.224 59.063 89.32C59.339 89.404 59.609 89.494 59.873 89.59C60.245 89.698 60.575 89.842 60.863 90.022C61.151 90.202 61.379 90.424 61.547 90.688C61.727 90.952 61.817 91.282 61.817 91.678C61.817 92.122 61.709 92.536 61.493 92.92C61.289 93.292 60.971 93.592 60.539 93.82C60.119 94.036 59.579 94.144 58.919 94.144ZM67.6171 94.18C66.7651 94.18 66.0331 94.012 65.4211 93.676C64.8091 93.328 64.3351 92.86 63.9991 92.272C63.6751 91.672 63.5131 90.988 63.5131 90.22C63.5131 89.488 63.6991 88.822 64.0711 88.222C64.4431 87.622 64.9411 87.142 65.5651 86.782C66.1891 86.422 66.8851 86.242 67.6531 86.242C68.6371 86.242 69.4531 86.53 70.1011 87.106C70.7491 87.682 71.1871 88.474 71.4151 89.482L65.2771 91.642L64.8811 90.652L69.9211 88.816L69.5611 89.05C69.4171 88.654 69.1771 88.312 68.8411 88.024C68.5051 87.724 68.0671 87.574 67.5271 87.574C67.0711 87.574 66.6631 87.688 66.3031 87.916C65.9431 88.132 65.6611 88.432 65.4571 88.816C65.2531 89.2 65.1511 89.638 65.1511 90.13C65.1511 90.646 65.2591 91.102 65.4751 91.498C65.6911 91.882 65.9851 92.188 66.3571 92.416C66.7411 92.632 67.1731 92.74 67.6531 92.74C67.9771 92.74 68.2891 92.68 68.5891 92.56C68.9011 92.44 69.1891 92.284 69.4531 92.092L70.2271 93.334C69.8551 93.586 69.4351 93.79 68.9671 93.946C68.5111 94.102 68.0611 94.18 67.6171 94.18Z" fill="#89BCD9"/>
</svg>
