<svg width="61" height="100" viewBox="0 0 61 100" fill="none" xmlns="http://www.w3.org/2000/svg">
<path d="M59.3822 35.3573L33.1506 9.12561C31.6497 7.6248 29.1701 7.6248 27.6693 9.12561L22.2533 14.5416L29.1701 21.4584C30.8015 20.9364 32.6285 21.2626 33.8683 22.5677C35.1734 23.8728 35.4997 25.6998 34.9776 27.3312L41.6334 33.9869C43.2647 33.4649 45.0918 33.7912 46.3969 35.0962C48.224 36.8581 48.224 39.7945 46.3969 41.6215C44.5698 43.4486 41.6987 43.4486 39.8716 41.6215C38.5013 40.2512 38.175 38.2936 38.8928 36.5971L32.6938 30.398V46.7113C33.1506 46.907 33.5421 47.2333 33.9336 47.5595C35.7607 49.3214 35.7607 52.2577 33.9336 54.0848C32.1065 55.8467 29.2354 55.8467 27.4083 54.0848C25.5812 52.2577 25.5812 49.3866 27.4083 47.5595C27.8651 47.1028 28.3871 46.7765 28.9091 46.5807V30.0718C28.3871 29.876 27.8651 29.4845 27.4083 29.093C26.038 27.7227 25.7117 25.7651 26.4295 24.0685L19.578 17.2822L1.63342 35.2268C0.132609 36.7276 0.132609 39.2072 1.63342 40.708L27.7998 66.8744C29.3006 68.3752 31.7802 68.3752 33.2811 66.8744L59.317 40.8385C60.883 39.2724 60.883 36.8581 59.3822 35.3573Z" fill="#89BCD9"/>
<path d="M27.56 92.884C27.38 93.04 27.128 93.196 26.804 93.352C26.48 93.496 26.12 93.628 25.724 93.748C25.34 93.868 24.938 93.964 24.518 94.036C24.11 94.108 23.726 94.144 23.366 94.144C22.322 94.144 21.38 93.982 20.54 93.658C19.712 93.334 18.998 92.884 18.398 92.308C17.81 91.732 17.354 91.054 17.03 90.274C16.718 89.494 16.562 88.648 16.562 87.736C16.562 86.656 16.736 85.69 17.084 84.838C17.444 83.974 17.93 83.248 18.542 82.66C19.166 82.06 19.88 81.61 20.684 81.31C21.488 80.998 22.34 80.842 23.24 80.842C23.996 80.842 24.698 80.932 25.346 81.112C25.994 81.292 26.564 81.52 27.056 81.796L26.462 83.398C26.222 83.254 25.922 83.122 25.562 83.002C25.214 82.882 24.854 82.786 24.482 82.714C24.11 82.63 23.762 82.588 23.438 82.588C22.67 82.588 21.974 82.708 21.35 82.948C20.726 83.176 20.192 83.512 19.748 83.956C19.304 84.388 18.962 84.916 18.722 85.54C18.482 86.152 18.362 86.842 18.362 87.61C18.362 88.318 18.482 88.966 18.722 89.554C18.962 90.142 19.304 90.652 19.748 91.084C20.192 91.504 20.72 91.834 21.332 92.074C21.956 92.302 22.64 92.416 23.384 92.416C23.828 92.416 24.266 92.374 24.698 92.29C25.13 92.194 25.502 92.062 25.814 91.894V89.302H23.222V87.628H27.56V92.884ZM30.8896 80.986H32.6356V94H30.8896V80.986ZM35.42 80.986H44.06V82.66H40.568V94H38.822V82.66H35.42V80.986Z" fill="#89BCD9"/>
</svg>
