<svg width="53" height="38" viewBox="0 0 53 38" fill="none" xmlns="http://www.w3.org/2000/svg">
<path d="M14.1406 27.8594C13.6354 27.8438 13.1979 27.7266 12.8281 27.5078C12.4583 27.2891 12.151 27 11.9062 26.6406C11.6719 26.2969 11.4948 25.9115 11.375 25.4844C11.2552 25.0625 11.1953 24.6432 11.1953 24.2266V22.9062C11.1953 22.1562 11.0156 21.612 10.6562 21.2734C10.3021 20.9349 9.75781 20.763 9.02344 20.7578V19.625C9.75781 19.625 10.3021 19.4583 10.6562 19.125C11.0156 18.7865 11.1953 18.2396 11.1953 17.4844V16.1562C11.1953 15.7344 11.25 15.3047 11.3594 14.8672C11.474 14.4245 11.6536 14.0286 11.8984 13.6797C12.1276 13.3464 12.4271 13.0755 12.7969 12.8672C13.1667 12.6536 13.6146 12.5391 14.1406 12.5234L14.3047 13.4219C13.9297 13.4323 13.6302 13.5208 13.4062 13.6875C13.1875 13.8542 13.0234 14.0651 12.9141 14.3203C12.7995 14.5807 12.7266 14.8724 12.6953 15.1953C12.6641 15.5182 12.6484 15.8385 12.6484 16.1562V17.4844C12.6484 18.1094 12.5026 18.6589 12.2109 19.1328C11.9245 19.6016 11.4792 19.9583 10.875 20.2031C11.4792 20.4427 11.9245 20.7995 12.2109 21.2734C12.4974 21.7422 12.6432 22.2865 12.6484 22.9062V24.2266C12.6484 24.5495 12.6745 24.8698 12.7266 25.1875C12.7786 25.5104 12.8698 25.7995 13 26.0547C13.125 26.3151 13.2917 26.5286 13.5 26.6953C13.7135 26.862 13.9818 26.9505 14.3047 26.9609L14.1406 27.8594Z" fill="#F8F5EC"/>
<path d="M39.0234 26.9609C39.3411 26.9505 39.6068 26.862 39.8203 26.6953C40.0339 26.5286 40.2057 26.3151 40.3359 26.0547C40.4609 25.7995 40.5495 25.5104 40.6016 25.1875C40.6589 24.8698 40.6875 24.5495 40.6875 24.2266V22.9062C40.6875 22.4948 40.7474 22.1146 40.8672 21.7656C40.9922 21.4167 41.1823 21.1146 41.4375 20.8594C41.5729 20.724 41.724 20.6016 41.8906 20.4922C42.0625 20.3828 42.25 20.2865 42.4531 20.2031C42.2448 20.1198 42.0521 20.0208 41.875 19.9062C41.7031 19.7917 41.5521 19.6641 41.4219 19.5234C41.1719 19.263 40.987 18.9609 40.8672 18.6172C40.7474 18.2682 40.6875 17.8906 40.6875 17.4844V16.1562C40.6875 15.8385 40.6693 15.5182 40.6328 15.1953C40.6016 14.8724 40.5312 14.5807 40.4219 14.3203C40.3073 14.0651 40.1406 13.8542 39.9219 13.6875C39.7031 13.5208 39.4062 13.4323 39.0312 13.4219L39.1875 12.5234C39.6927 12.5391 40.125 12.6458 40.4844 12.8438C40.849 13.0417 41.1484 13.2995 41.3828 13.6172C41.6484 13.9766 41.8385 14.3802 41.9531 14.8281C42.0729 15.276 42.1328 15.7188 42.1328 16.1562V17.4844C42.1328 17.7969 42.1615 18.0729 42.2188 18.3125C42.2812 18.5469 42.3724 18.75 42.4922 18.9219C42.6641 19.1667 42.901 19.3464 43.2031 19.4609C43.5104 19.5703 43.8776 19.625 44.3047 19.625V20.7578C43.9297 20.763 43.6016 20.8099 43.3203 20.8984C43.0443 20.9818 42.8177 21.1146 42.6406 21.2969C42.4688 21.474 42.3411 21.6953 42.2578 21.9609C42.1745 22.2266 42.1328 22.5417 42.1328 22.9062V24.2266C42.1328 24.6432 42.0755 25.0625 41.9609 25.4844C41.8464 25.9115 41.6693 26.2995 41.4297 26.6484C41.1849 26.9974 40.8776 27.2839 40.5078 27.5078C40.138 27.7318 39.6979 27.849 39.1875 27.8594L39.0234 26.9609Z" fill="#F8F5EC"/>
<path d="M32.6745 35H40.1913L50.5 20.3285L40.1913 5H32.6745L18.7148 35H11.8423L2.5 20.3285L11.8423 5H18.7148" stroke="#262E34" stroke-opacity="0.8" stroke-width="4" stroke-linecap="round"/>
</svg>
