<svg width="43" height="45" viewBox="0 0 43 45" fill="none" xmlns="http://www.w3.org/2000/svg">
<path d="M15.8874 41.1688C12.8987 40.3159 10.2701 38.7455 7.97518 36.5523C7.25467 36.8096 6.52082 37.0668 5.77362 37.3105C5.42671 37.4188 5.0798 37.3782 4.71955 37.2428C4.0791 36.9991 3.69216 36.5253 3.41196 35.9431C3.02502 35.1715 2.53134 34.4675 2.1444 33.6958C1.79749 32.9783 1.29046 32.3556 0.996921 31.611C0.85015 31.2455 0.463211 31.0018 0.463211 30.5415C0.116299 29.9729 0.449868 29.472 0.650009 28.9711C0.70338 28.8357 0.770094 28.6597 0.890179 28.6056C1.37052 28.389 1.61069 27.9016 2.01097 27.6038C2.19777 27.4684 2.39791 27.3195 2.61139 27.157C2.30451 25.6002 2.03765 24.0433 2.03765 22.4458C2.03765 20.8619 2.31785 19.3321 2.61139 17.8159C2.09103 17.3285 1.61069 16.8547 1.10366 16.4079C0.583295 15.9477 0.276412 15.3791 0.343126 14.7834C0.383154 14.4585 0.476553 14.1065 0.636666 13.8357C1.13035 13.037 1.584 12.1977 2.06434 11.3854C2.45128 10.7356 2.78485 10.0587 3.21182 9.42238C3.43864 9.09747 3.57207 8.71841 3.7989 8.37996C4.23921 7.74368 5.11983 7.43231 5.84034 7.64892C6.48079 7.83845 7.08121 8.12274 7.73501 8.24459C7.80172 8.25812 7.85509 8.35289 7.92181 8.42058C10.2301 6.24097 12.8586 4.68412 15.8741 3.77708C15.9942 3.41155 16.0209 3.01895 16.1676 2.63989C16.2744 2.3556 16.2477 2.00361 16.3011 1.69224C16.4478 0.879964 16.9415 0.406137 17.6487 0.162455C17.9022 0.0812274 18.1557 0 18.4626 0C20.3306 0.0270758 22.1985 0.0270758 24.0665 0C24.6002 0 25.0539 0.216607 25.4809 0.460289C25.8678 0.663357 26.0813 1.09657 26.188 1.50271C26.3748 2.24729 26.4816 3.00542 26.6283 3.79061C29.6305 4.65704 32.259 6.2139 34.5539 8.40704C35.2744 8.14982 36.0083 7.8926 36.7555 7.64892C37.1024 7.54061 37.4493 7.58123 37.8096 7.71661C38.45 7.96029 38.837 8.43412 39.1172 9.01624C39.5041 9.78791 39.9978 10.4919 40.3847 11.2635C40.7316 11.981 41.2387 12.6038 41.5322 13.3484C41.679 13.7139 42.0659 13.9576 42.0659 14.4179C42.4128 14.9865 42.0792 15.4874 41.8791 15.9883C41.8257 16.1236 41.759 16.2996 41.6389 16.3538C41.1586 16.5704 40.9184 17.0578 40.5181 17.3556C40.3313 17.491 40.1312 17.6399 39.9177 17.8023C40.2246 19.3592 40.4915 20.9161 40.4915 22.5135C40.4915 24.0975 40.2513 25.6273 39.9177 27.1435C40.4381 27.6309 40.9184 28.1047 41.4254 28.5514C41.9458 29.0117 42.2527 29.5803 42.186 30.176C42.146 30.5009 42.0659 30.8529 41.8924 31.1236C41.4121 31.9088 40.9585 32.7211 40.4915 33.5199C39.9044 34.5081 39.424 35.5776 38.7436 36.5117C38.6235 37.0262 38.1431 37.0668 37.7962 37.2563C37.4226 37.4594 37.049 37.4052 36.6354 37.2834C36.0216 37.1074 35.4346 36.796 34.7941 36.7148C34.7274 36.7013 34.674 36.6065 34.6073 36.5388C32.299 38.7455 29.6838 40.3159 26.6283 41.1958C26.4816 41.9269 26.3481 42.685 26.188 43.4296C26.0279 44.1606 25.5476 44.6209 24.8671 44.8375C24.6136 44.9188 24.3467 45 24.0532 45C22.1852 44.9729 20.3172 44.9729 18.4492 45C17.9155 45 17.4619 44.7834 17.0349 44.5397C16.648 44.3366 16.4211 43.9034 16.3411 43.4973C16.1943 42.6986 16.0475 41.954 15.8874 41.1688ZM16.7547 29.2419C17.0216 29.093 17.3284 28.9982 17.3418 28.6733C17.3685 28.1859 17.4352 27.685 17.3284 27.2247C17.1416 26.4395 16.8081 25.6814 16.6079 24.8962C16.4745 24.3953 16.181 23.9215 16.1943 23.38C15.7673 22.3105 15.5005 21.1868 15.1402 20.1038C14.8467 19.2103 14.6332 18.2897 14.313 17.4097C14.1395 16.9224 14.0995 16.3809 13.7793 15.9477C13.7526 15.907 13.7392 15.88 13.7392 15.88C13.379 15.6363 13.0054 15.7175 12.6852 15.7175C12.4984 15.8935 12.3383 16.0424 12.1915 16.1778C12.1781 16.611 11.8713 16.9495 11.9246 17.3691C11.4576 18.4251 11.2575 19.5623 10.8706 20.6453C10.6704 21.2004 10.5503 21.769 10.3902 22.3375C10.2434 22.9061 9.92322 23.4206 9.92322 24.0298C9.41619 25.1805 9.16268 26.4125 8.78909 27.6173C8.69569 27.9152 8.64232 28.1995 8.82911 28.4838C8.88249 28.565 8.8558 28.6868 8.8558 28.6733C9.06928 28.9034 9.2294 29.0659 9.36282 29.2283C9.61634 29.2283 9.88319 29.2283 10.1634 29.2283C10.3502 28.9847 10.537 28.7545 10.7104 28.5244C10.6704 27.7527 10.8305 27.2383 11.1774 26.4125C12.485 26.4125 13.7926 26.4125 15.1002 26.4125C15.2069 26.8457 15.2603 27.2653 15.4071 27.6579C15.4738 27.8204 15.5405 27.9829 15.5138 28.1453C15.4738 28.6462 15.6339 29.0388 16.1943 29.2283C16.3277 29.2419 16.5279 29.2419 16.7547 29.2419ZM19.8769 29.2419C20.2372 29.2148 20.6508 29.3231 20.9443 29.0253C21.0511 28.8899 21.1445 28.7545 21.2779 28.565C21.2779 27.2112 21.2779 25.7897 21.2779 24.3682C22.2519 24.3682 23.2126 24.3276 24.1599 24.3818C24.7337 24.4088 25.2007 24.2329 25.6543 23.9486C25.8678 23.8132 26.0546 23.6101 26.2414 23.4206C26.7351 22.9332 26.9753 22.3375 26.9886 21.6336C26.9886 20.5235 26.9886 19.4269 26.9886 18.3168C26.9886 18.1543 26.9486 17.9783 26.9085 17.8159C26.7618 17.2338 26.4549 16.8005 26.0413 16.4215C25.5609 15.9747 25.0005 15.704 24.3334 15.704C22.839 15.704 21.358 15.704 19.8502 15.704C19.7035 15.8664 19.5567 16.0289 19.3832 16.1913C19.3832 20.361 19.3832 24.5578 19.3832 28.7681C19.5567 28.917 19.7168 29.0794 19.8769 29.2419ZM29.4837 29.2419C30.4043 29.2419 31.3383 29.2419 32.259 29.2419C32.4191 29.0794 32.5792 28.917 32.7393 28.7681C32.7393 28.5108 32.7393 28.2671 32.7393 28.0099C32.7393 27.9829 32.7393 27.9693 32.7393 27.9558C32.5392 27.5767 32.2323 27.3466 31.832 27.306C31.832 24.0704 31.832 20.8484 31.832 17.694C32.1256 17.5451 32.3791 17.4097 32.6726 17.2473C32.7126 16.8953 32.7393 16.5298 32.766 16.2726C32.5525 16.0289 32.4058 15.8529 32.2857 15.7175C31.325 15.7175 30.391 15.7175 29.5637 15.7175C29.3369 15.9206 29.1768 16.0695 28.9767 16.259C29.0167 16.5839 29.0701 16.9495 29.1101 17.2608C29.4303 17.4233 29.6838 17.5587 29.9107 17.6805C29.9107 20.9025 29.9107 24.1245 29.9107 27.3195C29.7772 27.3466 29.6305 27.3195 29.5771 27.3872C29.3903 27.5767 29.0701 27.6309 29.0034 27.9422C29.0034 28.213 29.0034 28.4838 29.0034 28.7545C29.1635 28.917 29.3236 29.0794 29.4837 29.2419Z" fill="#89BCD9"/>
</svg>
