<svg width="80" height="100" viewBox="0 0 80 100" fill="none" xmlns="http://www.w3.org/2000/svg">
<path d="M32.8141 62.8917C28.8199 61.7545 25.3072 59.6607 22.2403 56.7365C21.2774 57.0794 20.2967 57.4224 19.2982 57.7473C18.8346 57.8917 18.3709 57.8375 17.8895 57.657C17.0336 57.3321 16.5165 56.7004 16.1421 55.9242C15.625 54.8953 14.9652 53.9567 14.4481 52.9278C13.9845 51.9711 13.3069 51.1408 12.9146 50.148C12.7185 49.6607 12.2014 49.3357 12.2014 48.722C11.7378 47.9639 12.1836 47.296 12.451 46.6282C12.5224 46.4477 12.6115 46.213 12.772 46.1408C13.4139 45.852 13.7349 45.2022 14.2698 44.8051C14.5194 44.6245 14.7869 44.426 15.0722 44.2094C14.6621 42.1336 14.3055 40.0578 14.3055 37.9278C14.3055 35.8159 14.6799 33.7762 15.0722 31.7545C14.3768 31.1047 13.7349 30.4729 13.0573 29.8773C12.3619 29.2635 11.9518 28.5054 12.0409 27.7112C12.0944 27.278 12.2192 26.8087 12.4332 26.4477C13.093 25.3827 13.6992 24.2635 14.3411 23.1805C14.8582 22.3141 15.304 21.4116 15.8746 20.5632C16.1777 20.13 16.356 19.6245 16.6592 19.1733C17.2476 18.3249 18.4244 17.9097 19.3873 18.1986C20.2432 18.4513 21.0456 18.8303 21.9193 18.9928C22.0085 19.0108 22.0798 19.1372 22.169 19.2274C25.2537 16.3213 28.7664 14.2455 32.7963 13.0361C32.9567 12.5487 32.9924 12.0253 33.1885 11.5199C33.3312 11.1408 33.2955 10.6715 33.3669 10.2563C33.563 9.17329 34.2227 8.54152 35.1678 8.21661C35.5066 8.1083 35.8454 8 36.2555 8C38.7518 8.0361 41.2482 8.0361 43.7445 8C44.4578 8 45.064 8.28881 45.6346 8.61372C46.1517 8.88448 46.437 9.46209 46.5797 10.0036C46.8293 10.9964 46.9719 12.0072 47.1681 13.0542C51.1801 14.2094 54.6928 16.2852 57.7597 19.2094C58.7226 18.8664 59.7033 18.5235 60.7018 18.1986C61.1654 18.0542 61.6291 18.1083 62.1105 18.2888C62.9664 18.6137 63.4835 19.2455 63.8579 20.0217C64.375 21.0505 65.0348 21.9892 65.5519 23.0181C66.0155 23.9747 66.6931 24.8051 67.0854 25.7978C67.2815 26.2852 67.7986 26.6101 67.7986 27.2238C68.2622 27.982 67.8164 28.6498 67.549 29.3177C67.4776 29.4982 67.3885 29.7329 67.228 29.8051C66.5861 30.0939 66.2651 30.7437 65.7302 31.1408C65.4806 31.3213 65.2131 31.5199 64.9278 31.7365C65.3379 33.8123 65.6945 35.8881 65.6945 38.018C65.6945 40.13 65.3736 42.1697 64.9278 44.1913C65.6232 44.8412 66.2651 45.4729 66.9427 46.0686C67.6381 46.6823 68.0482 47.4404 67.9591 48.2347C67.9056 48.6679 67.7986 49.1372 67.5668 49.4982C66.9249 50.5451 66.3186 51.6282 65.6945 52.6931C64.91 54.0108 64.268 55.4368 63.3587 56.6823C63.1982 57.3682 62.5563 57.4224 62.0927 57.6751C61.5934 57.9458 61.0941 57.8736 60.5414 57.7112C59.7211 57.4765 58.9366 57.0614 58.0807 56.9531C57.9915 56.935 57.9202 56.8087 57.831 56.7184C54.7463 59.6607 51.2514 61.7545 47.1681 62.9278C46.9719 63.9025 46.7936 64.9134 46.5797 65.9061C46.3657 66.8809 45.7238 67.4946 44.8144 67.7834C44.4756 67.8917 44.119 68 43.7267 68C41.2303 67.9639 38.734 67.9639 36.2377 68C35.5244 68 34.9182 67.7112 34.3476 67.3863C33.8305 67.1155 33.5273 66.5379 33.4203 65.9964C33.2242 64.9314 33.0281 63.9386 32.8141 62.8917ZM33.9731 46.9892C34.3297 46.7906 34.7398 46.6643 34.7577 46.231C34.7933 45.5812 34.8825 44.9134 34.7398 44.2996C34.4902 43.2527 34.0444 42.2419 33.777 41.1949C33.5987 40.5271 33.2064 39.8953 33.2242 39.1733C32.6536 37.7473 32.297 36.2491 31.8156 34.8051C31.4233 33.6137 31.138 32.3863 30.71 31.213C30.4782 30.5632 30.4247 29.8412 29.9968 29.2635C29.9611 29.2094 29.9433 29.1733 29.9433 29.1733C29.4619 28.8484 28.9626 28.9567 28.5346 28.9567C28.285 29.1913 28.071 29.3899 27.8749 29.5704C27.8571 30.148 27.4469 30.5993 27.5183 31.1588C26.8942 32.5668 26.6267 34.083 26.1096 35.5271C25.8422 36.2671 25.6817 37.0253 25.4677 37.7834C25.2716 38.5415 24.8436 39.2274 24.8436 40.0397C24.166 41.574 23.8272 43.2166 23.328 44.8231C23.2032 45.2202 23.1318 45.5993 23.3815 45.9783C23.4528 46.0866 23.4171 46.2491 23.4171 46.231C23.7024 46.5379 23.9164 46.7545 24.0947 46.9711C24.4335 46.9711 24.7901 46.9711 25.1646 46.9711C25.4142 46.6462 25.6638 46.3394 25.8956 46.0325C25.8422 45.0036 26.0561 44.3177 26.5197 43.2166C28.2672 43.2166 30.0146 43.2166 31.7621 43.2166C31.9047 43.7942 31.976 44.3538 32.1722 44.8773C32.2613 45.0939 32.3505 45.3105 32.3148 45.5271C32.2613 46.1949 32.4753 46.7184 33.2242 46.9711C33.4025 46.9892 33.67 46.9892 33.9731 46.9892ZM38.1456 46.9892C38.627 46.9531 39.1798 47.0975 39.5721 46.7004C39.7147 46.5199 39.8395 46.3394 40.0178 46.0866C40.0178 44.2816 40.0178 42.3863 40.0178 40.491C41.3195 40.491 42.6033 40.4368 43.8693 40.509C44.6361 40.5451 45.2602 40.3105 45.8664 39.9314C46.1517 39.7509 46.4013 39.4801 46.651 39.2274C47.3107 38.5776 47.6317 37.7834 47.6495 36.8448C47.6495 35.3646 47.6495 33.9025 47.6495 32.4224C47.6495 32.2058 47.596 31.9711 47.5425 31.7545C47.3464 30.9783 46.9363 30.4007 46.3835 29.8953C45.7416 29.2996 44.9927 28.9386 44.1011 28.9386C42.1041 28.9386 40.1248 28.9386 38.1099 28.9386C37.9138 29.1552 37.7176 29.3718 37.4858 29.5884C37.4858 35.148 37.4858 40.7437 37.4858 46.3574C37.7176 46.556 37.9316 46.7726 38.1456 46.9892ZM50.9839 46.9892C52.2143 46.9892 53.4624 46.9892 54.6928 46.9892C54.9067 46.7726 55.1207 46.556 55.3347 46.3574C55.3347 46.0144 55.3347 45.6895 55.3347 45.3466C55.3347 45.3105 55.3347 45.2924 55.3347 45.2744C55.0672 44.769 54.6571 44.4621 54.1222 44.4079C54.1222 40.0939 54.1222 35.7978 54.1222 31.5921C54.5145 31.3935 54.8533 31.213 55.2455 30.9964C55.299 30.5271 55.3347 30.0397 55.3704 29.6968C55.0851 29.3718 54.8889 29.1372 54.7284 28.9567C53.4446 28.9567 52.1964 28.9567 51.0909 28.9567C50.7878 29.2274 50.5738 29.426 50.3063 29.6787C50.3598 30.1119 50.4312 30.5993 50.4847 31.0144C50.9126 31.231 51.2514 31.4116 51.5545 31.574C51.5545 35.87 51.5545 40.1661 51.5545 44.426C51.3762 44.4621 51.1801 44.426 51.1087 44.5162C50.8591 44.769 50.4312 44.8412 50.342 45.2563C50.342 45.6173 50.342 45.9783 50.342 46.3394C50.556 46.556 50.7699 46.7726 50.9839 46.9892Z" fill="#89BCD9"/>
<path d="M30.8186 40.4559C29.7666 40.492 28.661 40.51 27.5555 40.5461C27.5199 40.5461 27.4664 40.6183 27.3594 40.7086C27.3772 39.5894 28.0013 38.6869 28.0726 37.658C28.6075 36.7555 28.661 35.6905 29.0177 34.6797C29.1246 34.788 29.2851 34.8963 29.2851 34.9865C29.303 35.7627 29.7487 36.4306 29.8914 37.1707C29.9984 37.6761 30.2837 38.1634 30.355 38.6689C30.4263 39.3187 30.8543 39.806 30.8186 40.4559Z" fill="#89BCD9"/>
<path d="M45.1744 36.9524C45.0496 37.151 44.9426 37.3495 44.7999 37.53C44.5503 37.8188 44.2294 37.9813 43.8192 37.9632C42.5711 37.9452 41.3229 37.9632 40.0391 37.9632C40.0391 35.8152 40.0391 33.6672 40.0391 31.4651C41.3407 31.4651 42.6781 31.447 43.9976 31.4651C44.6216 31.4831 45.1566 32.1329 45.1744 32.8188C45.1744 33.956 45.1744 35.0932 45.1744 36.2304C45.1744 36.4831 45.1744 36.7178 45.1744 36.9524Z" fill="#89BCD9"/>
<path d="M10.828 80.986C11.488 80.986 12.094 81.076 12.646 81.256C13.21 81.424 13.696 81.682 14.104 82.03C14.524 82.366 14.848 82.786 15.076 83.29C15.316 83.782 15.436 84.358 15.436 85.018C15.436 85.534 15.358 86.038 15.202 86.53C15.058 87.022 14.812 87.472 14.464 87.88C14.116 88.276 13.66 88.6 13.096 88.852C12.544 89.092 11.86 89.212 11.044 89.212H9.118V94H7.372V80.986H10.828ZM11.008 87.538C11.524 87.538 11.95 87.46 12.286 87.304C12.634 87.148 12.904 86.95 13.096 86.71C13.288 86.458 13.426 86.188 13.51 85.9C13.594 85.612 13.636 85.342 13.636 85.09C13.636 84.826 13.588 84.556 13.492 84.28C13.408 83.992 13.264 83.728 13.06 83.488C12.868 83.248 12.61 83.05 12.286 82.894C11.974 82.738 11.59 82.66 11.134 82.66H9.118V87.538H11.008ZM13.15 88.528L16.552 94H14.536L11.08 88.582L13.15 88.528ZM22.0507 94.18C21.1987 94.18 20.4667 94.012 19.8547 93.676C19.2427 93.328 18.7687 92.86 18.4327 92.272C18.1087 91.672 17.9467 90.988 17.9467 90.22C17.9467 89.488 18.1327 88.822 18.5047 88.222C18.8767 87.622 19.3747 87.142 19.9987 86.782C20.6227 86.422 21.3187 86.242 22.0867 86.242C23.0707 86.242 23.8867 86.53 24.5347 87.106C25.1827 87.682 25.6207 88.474 25.8487 89.482L19.7107 91.642L19.3147 90.652L24.3547 88.816L23.9947 89.05C23.8507 88.654 23.6107 88.312 23.2747 88.024C22.9387 87.724 22.5007 87.574 21.9607 87.574C21.5047 87.574 21.0967 87.688 20.7367 87.916C20.3767 88.132 20.0947 88.432 19.8907 88.816C19.6867 89.2 19.5847 89.638 19.5847 90.13C19.5847 90.646 19.6927 91.102 19.9087 91.498C20.1247 91.882 20.4187 92.188 20.7907 92.416C21.1747 92.632 21.6067 92.74 22.0867 92.74C22.4107 92.74 22.7227 92.68 23.0227 92.56C23.3347 92.44 23.6227 92.284 23.8867 92.092L24.6607 93.334C24.2887 93.586 23.8687 93.79 23.4007 93.946C22.9447 94.102 22.4947 94.18 22.0507 94.18ZM30.0343 94.144C29.5063 94.144 28.9903 94.054 28.4863 93.874C27.9943 93.682 27.5863 93.4 27.2623 93.028L27.9643 92.056C28.2763 92.356 28.5943 92.584 28.9183 92.74C29.2543 92.884 29.5843 92.956 29.9083 92.956C30.1483 92.956 30.3703 92.926 30.5743 92.866C30.7783 92.806 30.9403 92.71 31.0603 92.578C31.1923 92.434 31.2583 92.242 31.2583 92.002C31.2583 91.738 31.1683 91.528 30.9883 91.372C30.8203 91.216 30.5983 91.09 30.3223 90.994C30.0583 90.898 29.7763 90.808 29.4763 90.724C28.8643 90.52 28.3963 90.238 28.0723 89.878C27.7483 89.518 27.5863 89.08 27.5863 88.564C27.5863 88.168 27.6823 87.802 27.8743 87.466C28.0783 87.118 28.3723 86.836 28.7563 86.62C29.1523 86.404 29.6383 86.296 30.2143 86.296C30.7303 86.296 31.1923 86.362 31.6003 86.494C32.0083 86.614 32.3923 86.818 32.7523 87.106L32.0863 88.15C31.8703 87.922 31.6123 87.754 31.3123 87.646C31.0123 87.538 30.7423 87.478 30.5023 87.466C30.2983 87.454 30.1003 87.484 29.9083 87.556C29.7283 87.628 29.5783 87.73 29.4583 87.862C29.3383 87.994 29.2783 88.15 29.2783 88.33C29.2783 88.582 29.3623 88.786 29.5303 88.942C29.6983 89.098 29.9143 89.224 30.1783 89.32C30.4543 89.404 30.7243 89.494 30.9883 89.59C31.3603 89.698 31.6903 89.842 31.9783 90.022C32.2663 90.202 32.4943 90.424 32.6623 90.688C32.8423 90.952 32.9323 91.282 32.9323 91.678C32.9323 92.122 32.8243 92.536 32.6083 92.92C32.4043 93.292 32.0863 93.592 31.6543 93.82C31.2343 94.036 30.6943 94.144 30.0343 94.144ZM35.9964 83.272H37.6704V86.584H39.7224V87.898H37.6704V94H35.9964V87.898H34.6284V86.584H35.9964V83.272ZM41.2411 89.392H44.6071V90.868H41.2411V89.392ZM46.3299 94L52.0179 80.446H52.1259L57.7959 94H55.7979L51.5499 83.182L52.7919 82.372L48.0399 94H46.3299ZM49.6599 89.068H54.5019L55.0779 90.58H49.1559L49.6599 89.068ZM64.225 94.18C63.661 94.18 63.115 94.048 62.587 93.784C62.071 93.52 61.669 93.166 61.381 92.722L61.489 92.2V97.582H59.833V86.44H61.273L61.507 88.348L61.327 87.826C61.687 87.37 62.143 86.992 62.695 86.692C63.247 86.392 63.865 86.242 64.549 86.242C65.245 86.242 65.869 86.41 66.421 86.746C66.985 87.082 67.429 87.55 67.753 88.15C68.077 88.75 68.239 89.452 68.239 90.256C68.239 91.06 68.065 91.756 67.717 92.344C67.369 92.932 66.889 93.388 66.277 93.712C65.677 94.024 64.993 94.18 64.225 94.18ZM63.901 92.848C64.381 92.848 64.819 92.74 65.215 92.524C65.623 92.296 65.947 91.99 66.187 91.606C66.427 91.21 66.547 90.766 66.547 90.274C66.547 89.77 66.433 89.326 66.205 88.942C65.977 88.546 65.671 88.234 65.287 88.006C64.915 87.778 64.495 87.664 64.027 87.664C63.595 87.664 63.205 87.748 62.857 87.916C62.509 88.084 62.221 88.318 61.993 88.618C61.765 88.906 61.603 89.242 61.507 89.626V90.868C61.567 91.252 61.711 91.594 61.939 91.894C62.167 92.194 62.449 92.428 62.785 92.596C63.133 92.764 63.505 92.848 63.901 92.848ZM70.5029 86.548H72.1769V94H70.5029V86.548ZM70.3769 83.848C70.3769 83.584 70.4789 83.362 70.6829 83.182C70.8989 83.002 71.1329 82.912 71.3849 82.912C71.6369 82.912 71.8589 83.002 72.0509 83.182C72.2549 83.362 72.3569 83.584 72.3569 83.848C72.3569 84.124 72.2549 84.352 72.0509 84.532C71.8589 84.7 71.6369 84.784 71.3849 84.784C71.1329 84.784 70.8989 84.694 70.6829 84.514C70.4789 84.334 70.3769 84.112 70.3769 83.848Z" fill="#89BCD9"/>
</svg>
