<svg width="30" height="60" viewBox="0 0 30 60" fill="none" xmlns="http://www.w3.org/2000/svg">
<path d="M13.4072 16.3569L8.15053 20.575C7.7969 20.8588 7.29361 20.8588 6.93999 20.575C6.45754 20.1879 6.45754 19.4536 6.93999 19.0665L13.8741 13.5022C14.2398 13.2088 14.7602 13.2088 15.1259 13.5022L22.06 19.0665C22.5425 19.4536 22.5425 20.1879 22.06 20.575C21.7064 20.8588 21.2031 20.8588 20.8495 20.575L15.5928 16.3569L15.5928 46C15.5928 46.5523 15.1451 47 14.5928 47H14.4072C13.8549 47 13.4072 46.5523 13.4072 46L13.4072 16.3569Z" fill="#89BCD9"/>
<rect x="0.5" y="0.5" width="29" height="59" rx="14.5" stroke="#89BCD9"/>
</svg>
